<svg viewBoxSize="575" xmlns="http://www.w3.org/2000/svg" viewBox="0 0 125 125" height="150" width="150"><path fill="#688B85" d="M41.9,48.5c1.6,1.6,1.6,4.1,0,5.7L0,96.1V50.7l19.2-19.2c1.6-1.6,4.1-1.6,5.7,0L41.9,48.5z M50.7,0L29,21.9  c-1.5,1.6-1.5,4.1,0,5.6l17,17c1.6,1.6,4.1,1.6,5.7,0L96.1,0H50.7z M15.1,92.6c-1.6-1.5-4.1-1.5-5.6,0L0,102v18.7  c0,2.2,1.8,3.9,3.9,3.9h18.4l9.7-9.7c1.6-1.6,1.6-4.1,0-5.7L15.1,92.6z M102,0L90.2,11.8c-1.6,1.6-1.6,4.1,0,5.7l17,17  c1.6,1.6,4.1,1.6,5.7,0L125,22.4V3.9c0-2.2-1.8-3.9-3.9-3.9H102z M86.9,21.1c-1.6-1.6-4.1-1.6-5.7,0L18.9,83.1  c-1.6,1.6-1.6,4.1,0,5.7l17,17c1.6,1.6,4.1,1.6,5.7,0l62.1-62.1c1.6-1.6,1.6-4.1,0-5.6L86.9,21.1z M0,3.9V45L45,0H3.9  C1.8,0,0,1.8,0,3.9z M76.2,82.5c-1.6-1.6-4.1-1.6-5.7,0L28,125h45.3l19.8-19.8c1.6-1.6,1.6-4.1,0-5.7L76.2,82.5z M80.1,72.9  c-1.6,1.6-1.6,4.1,0,5.7l17,17c1.6,1.6,4.1,1.6,5.7,0L125,73.4V28L80.1,72.9z M79.1,125h42c2.2,0,3.9-1.8,3.9-3.9l0-42L79.1,125z" ></path></svg>